<svg version="1.1" id="Layer_1" xmlns="http://www.w3.org/2000/svg" xmlns:xlink="http://www.w3.org/1999/xlink" x="0px" y="0px"
	 width="100%" viewBox="0 0 290 59" enable-background="new 0 0 290 59" xml:space="preserve">
<path fill="#FCFCFC" opacity="1.000000" stroke="none" 
	d="
M207.000000,60.000000 
	C138.000031,60.000000 69.500046,60.000000 1.000055,60.000000 
	C1.000037,40.333366 1.000037,20.666729 1.000018,1.000071 
	C97.666603,1.000047 194.333206,1.000047 290.999878,1.000024 
	C290.999908,20.666594 290.999908,40.333187 290.999939,59.999889 
	C263.166656,60.000000 235.333328,60.000000 207.000000,60.000000 
M254.157074,31.827188 
	C249.244431,31.492727 244.847702,32.382172 243.525970,37.933556 
	C242.595032,41.843494 241.721313,45.983368 245.434662,49.275017 
	C249.054718,52.483971 252.541168,50.969650 256.834900,49.004684 
	C257.658539,49.961460 258.482178,50.918236 260.410400,53.158188 
	C260.410400,43.834595 260.410400,35.926273 260.410400,28.188961 
	C258.481049,29.566679 256.739410,30.810343 254.157074,31.827188 
M227.028580,43.372204 
	C227.045883,41.874809 226.495163,39.983021 227.202286,38.964588 
	C228.549896,37.023693 230.615417,35.581268 232.382889,33.931889 
	C233.746735,35.526470 235.914490,36.957954 236.279129,38.755260 
	C236.780273,41.225441 235.910248,43.971958 235.639847,46.601318 
	C235.511948,47.844906 235.412277,49.091393 235.221558,51.202881 
	C239.665756,47.429859 241.151489,38.154507 238.701355,34.551067 
	C236.079208,30.694620 232.346069,30.107431 227.424469,32.651237 
	C226.857010,31.773155 226.289917,30.895643 225.722839,30.018131 
	C225.251038,30.078403 224.779251,30.138676 224.307465,30.198948 
	C224.307465,34.792313 224.307465,39.385677 224.225418,44.674778 
	C224.493576,45.818272 224.761734,46.961769 225.029892,48.105263 
	C225.451950,48.074722 225.874023,48.044182 226.296082,48.013645 
	C226.353943,46.695980 226.411804,45.378319 227.028580,43.372204 
M89.121445,52.871552 
	C89.708824,52.916759 90.296196,52.961971 91.412987,53.358280 
	C91.886208,53.346725 92.586273,53.534863 92.798622,53.293648 
	C95.971016,49.690041 96.440720,36.987873 93.600136,33.239563 
	C90.531540,29.190371 84.642960,29.462183 82.460915,33.753746 
	C92.299004,35.214577 92.299004,35.214577 91.180878,39.200085 
	C89.303024,38.926796 87.442451,38.217846 85.744576,38.497337 
	C81.840355,39.140030 80.256264,42.036221 80.290009,45.741970 
	C80.337250,50.929920 83.819351,52.406040 89.121445,52.871552 
M138.439850,5.286765 
	C138.287445,5.213726 138.135040,5.140687 137.596451,4.416185 
	C131.022171,3.564261 126.366234,6.672778 123.278687,12.032567 
	C120.347466,17.120966 121.503128,22.244219 124.613556,26.950571 
	C125.514748,28.314163 126.509575,30.508034 129.102631,27.831718 
	C130.017807,28.173937 130.932983,28.516153 131.960602,29.617638 
	C130.444199,31.552059 128.678711,33.349915 127.512718,35.476467 
	C126.897041,36.599354 127.026505,38.379665 127.399178,39.699478 
	C127.612534,40.455090 128.988205,40.882507 130.218094,41.712429 
	C126.556465,43.304890 125.532776,44.980030 129.213776,47.035194 
	C129.626953,47.265873 130.186737,47.559258 130.303726,47.939022 
	C130.821701,49.620461 131.202789,51.344074 131.639069,53.074917 
	C134.774048,50.701752 136.794586,49.172203 138.726868,47.709465 
	C137.962387,46.225975 137.281738,44.905151 136.601089,43.584332 
	C137.237534,44.200130 137.873962,44.815926 138.510406,45.431725 
	C139.267059,43.696472 140.580154,41.958008 140.570160,40.227180 
	C140.564240,39.200718 138.471573,38.186306 137.897232,37.273647 
	C138.264175,37.169594 138.631104,37.065536 139.766953,37.022560 
	C142.986404,33.840557 142.807510,33.436798 137.001785,30.232761 
	C137.361023,29.765684 137.720245,29.298609 138.809387,28.871773 
	C139.512085,28.686478 140.214783,28.501184 141.376877,28.922142 
	C142.720749,28.660864 144.374496,28.808245 145.353516,28.065834 
	C149.105225,25.220871 150.834579,18.696047 148.632385,14.149498 
	C146.664917,10.087608 144.261856,5.980332 138.439850,5.286765 
M196.519104,41.046108 
	C198.536636,37.020065 200.554184,32.994022 202.571716,28.967978 
	C203.114990,29.138405 203.658264,29.308830 204.201538,29.479258 
	C204.201538,38.221375 204.201538,46.963493 204.201538,56.015839 
	C209.365250,52.728630 209.507324,29.411694 204.157532,22.361906 
	C200.471100,27.775543 197.006485,32.863430 193.893326,37.435192 
	C190.437088,32.967720 186.746475,28.197294 182.887375,23.209103 
	C178.129959,29.105200 176.312805,48.533600 180.057129,55.551483 
	C180.666107,52.673916 181.234283,51.030373 181.328659,49.360062 
	C181.704193,42.713470 181.931976,36.058533 182.214462,29.406689 
	C182.939072,29.298544 183.663666,29.190397 184.388275,29.082253 
	C187.405945,34.761898 190.423615,40.441544 193.912155,47.007446 
	C194.943832,44.646461 195.578171,43.194775 196.519104,41.046108 
M25.741510,25.955502 
	C18.387445,29.162725 15.666021,34.893356 16.863626,44.395149 
	C17.503302,49.470318 19.984253,53.296135 24.852209,54.826084 
	C30.503592,56.602264 36.101864,56.137608 40.677116,51.851082 
	C41.452236,51.124874 41.291630,49.399918 41.563343,48.136395 
	C41.074402,47.999828 40.585464,47.863266 40.096527,47.726700 
	C39.282040,48.503960 38.518444,49.344467 37.644440,50.047760 
	C33.372391,53.485378 25.271124,52.828377 22.249477,48.832294 
	C19.087275,44.650322 19.343824,36.182137 22.761200,31.941460 
	C26.042091,27.870138 30.553238,27.354313 36.744160,30.161844 
	C37.914703,30.692678 39.335159,30.672426 41.855927,31.124437 
	C37.064301,25.012169 32.139019,24.124016 25.741510,25.955502 
M151.877655,30.125290 
	C147.475891,32.846519 145.754913,36.895588 145.890991,41.944263 
	C145.990479,45.635620 146.634735,48.946526 150.668228,50.354996 
	C154.744019,51.778225 158.049454,50.693314 161.606827,46.345661 
	C159.464691,46.345661 158.118256,45.943718 157.229385,46.411404 
	C151.782898,49.277122 150.661896,48.771130 149.241989,42.281799 
	C152.166138,41.849174 155.197235,41.762230 157.966309,40.865829 
	C159.859055,40.253109 162.657959,38.620243 162.775269,37.248753 
	C162.945908,35.253738 161.586884,32.301960 159.923645,31.194178 
	C158.029755,29.932768 155.084259,30.250252 151.877655,30.125290 
M68.078850,41.742062 
	C69.542343,41.496750 71.015633,41.298420 72.467163,40.995735 
	C74.998703,40.467838 78.684448,39.874939 77.723251,36.784122 
	C76.876122,34.060112 73.897804,30.552450 71.360504,30.080742 
	C64.645012,28.832264 60.286480,34.532455 60.659393,42.572327 
	C60.847149,46.620182 62.225761,49.819855 66.495392,50.715549 
	C70.577919,51.571995 73.859795,50.200340 75.403053,45.201622 
	C72.749916,46.301495 70.096786,47.401367 67.029091,48.673100 
	C65.727417,46.600388 64.336182,44.385071 62.595627,41.613514 
	C64.729172,41.788040 65.994522,41.891544 68.078850,41.742062 
M99.310043,36.849133 
	C100.266197,36.959042 101.222359,37.068954 102.178513,37.178864 
	C101.770897,37.412167 101.363281,37.645473 100.955666,37.878777 
	C102.669823,41.856049 104.024132,46.067894 106.354836,49.643261 
	C106.927101,50.521141 110.687134,49.320992 112.981628,49.076191 
	C113.098724,48.592155 113.215820,48.108120 113.332916,47.624088 
	C105.841888,48.287994 105.327972,43.652519 105.916466,38.586834 
	C106.675491,32.053207 112.055847,39.738609 114.114624,35.805901 
	C111.518478,33.930187 108.872452,32.018436 106.306404,30.164467 
	C104.238762,31.284609 101.491325,32.709206 98.840836,34.295769 
	C98.535263,34.478683 98.769440,35.563297 99.310043,36.849133 
M277.217255,31.075682 
	C273.881378,28.426548 270.199982,28.819647 268.406097,32.171337 
	C267.237427,34.354889 268.252075,37.883465 268.793182,40.712986 
	C268.991150,41.748180 270.974762,42.331715 271.552338,43.431812 
	C272.309082,44.873241 273.362305,47.329884 272.738861,48.107056 
	C270.815796,50.504253 269.025391,48.933960 267.649384,46.922337 
	C267.249725,46.338028 266.707703,45.851101 265.927094,44.980736 
	C264.169373,48.262562 265.177979,50.238995 267.781067,51.361290 
	C270.951294,52.728092 274.124390,52.551102 276.130768,49.335339 
	C277.937408,46.439713 277.625885,43.300163 274.672852,41.440659 
	C271.648041,39.535919 268.698425,37.569191 271.163086,33.978592 
	C271.933044,32.856907 275.716614,33.803841 278.677795,33.803841 
	C278.619537,33.662819 278.209625,32.670990 277.217255,31.075682 
M216.658249,49.893040 
	C217.103012,44.430347 217.623230,38.971653 217.912979,33.500751 
	C217.957581,32.658756 216.942123,31.760624 216.416931,30.888458 
	C215.835251,31.711979 214.816574,32.498898 214.744034,33.365055 
	C214.328094,38.331371 214.040359,43.315220 213.974426,48.296627 
	C213.964676,49.032867 215.364441,49.787766 216.658249,49.893040 
M117.244370,40.452099 
	C117.244370,43.993740 117.244370,47.535381 117.244370,51.077023 
	C118.069618,51.089493 118.894867,51.101963 119.720116,51.114433 
	C120.132820,44.784534 120.545532,38.454632 120.958237,32.124733 
	C120.401833,31.897762 119.845428,31.670792 119.289024,31.443821 
	C118.574013,32.480988 117.479164,33.436985 117.236000,34.574978 
	C116.899452,36.149982 117.203781,37.861935 117.244370,40.452099 
M52.147003,34.579151 
	C50.265594,33.452148 48.384186,32.325146 45.231163,30.436419 
	C46.318760,34.211945 47.459438,36.922741 47.813663,39.732677 
	C48.213406,42.903633 47.905750,46.163765 47.905750,49.385113 
	C48.507366,49.488941 49.108982,49.592770 49.710594,49.696598 
	C50.707829,44.597992 51.705059,39.499386 52.147003,34.579151 
z"/>
<path fill="#323031" opacity="1.000000" stroke="none" 
	d="
M196.365814,41.394596 
	C195.578171,43.194775 194.943832,44.646461 193.912155,47.007446 
	C190.423615,40.441544 187.405945,34.761898 184.388275,29.082253 
	C183.663666,29.190397 182.939072,29.298544 182.214462,29.406689 
	C181.931976,36.058533 181.704193,42.713470 181.328659,49.360062 
	C181.234283,51.030373 180.666107,52.673916 180.057129,55.551483 
	C176.312805,48.533600 178.129959,29.105200 182.887375,23.209103 
	C186.746475,28.197294 190.437088,32.967720 193.893326,37.435192 
	C197.006485,32.863430 200.471100,27.775543 204.157532,22.361906 
	C209.507324,29.411694 209.365250,52.728630 204.201538,56.015839 
	C204.201538,46.963493 204.201538,38.221375 204.201538,29.479258 
	C203.658264,29.308830 203.114990,29.138405 202.571716,28.967978 
	C200.554184,32.994022 198.536636,37.020065 196.365814,41.394596 
z"/>
<path fill="#FAC026" opacity="1.000000" stroke="none" 
	d="
M140.917480,28.315887 
	C140.214783,28.501184 139.512085,28.686478 138.470581,28.485327 
	C139.187531,24.822260 140.243271,21.545639 141.103851,18.874718 
	C136.840790,18.330477 133.295349,17.877850 129.749298,17.425146 
	C130.574051,21.324039 131.376572,25.117886 132.093567,28.915800 
	C132.008026,28.919868 131.848160,28.858372 131.848160,28.858372 
	C130.932983,28.516153 130.017807,28.173937 128.660828,27.552368 
	C127.395615,25.192579 126.572189,23.112141 125.765015,20.697365 
	C125.769264,19.917128 125.757256,19.471230 125.838867,18.767990 
	C125.844215,18.350851 125.755943,18.191051 125.603508,17.733482 
	C125.126717,17.138336 124.714096,16.840963 124.524483,16.117895 
	C124.841522,15.385927 124.935547,15.079657 125.253822,14.662758 
	C125.868332,14.025023 126.258598,13.497917 126.831329,12.725156 
	C127.359871,11.992033 127.705940,11.504565 128.290512,10.938044 
	C128.696976,10.579516 128.864960,10.300043 129.016159,10.009757 
	C128.999390,9.998944 129.014969,10.035672 129.260208,9.969597 
	C129.707840,9.640565 129.910233,9.377607 130.510132,9.063658 
	C137.100632,6.706825 141.583832,8.298836 145.079102,14.382814 
	C145.291000,15.432337 145.559036,16.164024 145.876663,17.328789 
	C146.768311,22.471861 145.215393,26.045238 140.917480,28.315887 
z"/>
<path fill="#333132" opacity="1.000000" stroke="none" 
	d="
M26.113327,25.794086 
	C32.139019,24.124016 37.064301,25.012169 41.855927,31.124437 
	C39.335159,30.672426 37.914703,30.692678 36.744160,30.161844 
	C30.553238,27.354313 26.042091,27.870138 22.761200,31.941460 
	C19.343824,36.182137 19.087275,44.650322 22.249477,48.832294 
	C25.271124,52.828377 33.372391,53.485378 37.644440,50.047760 
	C38.518444,49.344467 39.282040,48.503960 40.096527,47.726700 
	C40.585464,47.863266 41.074402,47.999828 41.563343,48.136395 
	C41.291630,49.399918 41.452236,51.124874 40.677116,51.851082 
	C36.101864,56.137608 30.503592,56.602264 24.852209,54.826084 
	C19.984253,53.296135 17.503302,49.470318 16.863626,44.395149 
	C15.666021,34.893356 18.387445,29.162725 26.113327,25.794086 
z"/>
<path fill="#2E2B2D" opacity="1.000000" stroke="none" 
	d="
M137.317184,37.166473 
	C138.471573,38.186306 140.564240,39.200718 140.570160,40.227180 
	C140.580154,41.958008 139.267059,43.696472 138.510406,45.431725 
	C137.873962,44.815926 137.237534,44.200130 136.601089,43.584332 
	C137.281738,44.905151 137.962387,46.225975 138.726868,47.709465 
	C136.794586,49.172203 134.774048,50.701752 131.639069,53.074917 
	C131.202789,51.344074 130.821701,49.620461 130.303726,47.939022 
	C130.186737,47.559258 129.626953,47.265873 129.213776,47.035194 
	C125.532776,44.980030 126.556465,43.304890 130.218094,41.712429 
	C128.988205,40.882507 127.612534,40.455090 127.399178,39.699478 
	C127.026505,38.379665 126.897041,36.599354 127.512718,35.476467 
	C128.678711,33.349915 130.444199,31.552059 131.904388,29.238005 
	C131.848160,28.858372 132.008026,28.919868 132.436981,28.958353 
	C134.260559,29.627726 135.655151,30.258614 137.049759,30.889503 
	C142.807510,33.436798 142.986404,33.840557 139.383606,36.609612 
	C138.489807,35.185871 137.979355,34.175083 137.468903,33.164299 
	C136.813629,33.547718 136.158340,33.931137 135.503052,34.314556 
	C136.107758,35.265194 136.712463,36.215836 137.317184,37.166473 
z"/>
<path fill="#2B282A" opacity="1.000000" stroke="none" 
	d="
M145.135254,14.064978 
	C141.583832,8.298836 137.100632,6.706825 130.268692,9.134192 
	C129.424820,9.515703 129.219894,9.775687 129.014969,10.035672 
	C129.014969,10.035672 128.999390,9.998944 128.779022,10.008547 
	C128.389786,10.351133 128.220901,10.684117 128.052017,11.017099 
	C127.705940,11.504565 127.359871,11.992033 126.554657,12.770161 
	C125.740196,13.631676 125.384888,14.202531 125.029579,14.773386 
	C124.935547,15.079657 124.841522,15.385927 124.425018,16.276125 
	C124.624252,17.250454 125.145966,17.640856 125.667679,18.031256 
	C125.755943,18.191051 125.844215,18.350851 125.620728,18.891653 
	C125.455566,19.859003 125.602165,20.445353 125.748764,21.031702 
	C126.572189,23.112141 127.395615,25.192579 128.364899,27.587299 
	C126.509575,30.508034 125.514748,28.314163 124.613556,26.950571 
	C121.503128,22.244219 120.347466,17.120966 123.278687,12.032567 
	C126.366234,6.672778 131.022171,3.564261 137.842682,4.909093 
	C138.369980,5.404088 138.651047,5.406174 138.932098,5.408261 
	C144.261856,5.980332 146.664917,10.087608 148.632385,14.149498 
	C150.834579,18.696047 149.105225,25.220871 145.353516,28.065834 
	C144.374496,28.808245 142.720749,28.660864 141.147186,28.619015 
	C145.215393,26.045238 146.768311,22.471861 145.943451,17.006668 
	C145.685501,15.522640 145.410370,14.793809 145.135254,14.064978 
z"/>
<path fill="#393738" opacity="1.000000" stroke="none" 
	d="
M88.257668,52.668381 
	C83.819351,52.406040 80.337250,50.929920 80.290009,45.741970 
	C80.256264,42.036221 81.840355,39.140030 85.744576,38.497337 
	C87.442451,38.217846 89.303024,38.926796 91.180878,39.200085 
	C92.299004,35.214577 92.299004,35.214577 82.460915,33.753746 
	C84.642960,29.462183 90.531540,29.190371 93.600136,33.239563 
	C96.440720,36.987873 95.971016,49.690041 92.798622,53.293648 
	C92.586273,53.534863 91.886208,53.346725 91.060593,52.837467 
	C89.891357,52.433895 89.074516,52.551136 88.257668,52.668381 
M91.899765,43.852009 
	C90.373573,40.444485 87.805298,40.189262 85.116631,42.085354 
	C82.308060,44.066017 83.290810,47.003365 88.530190,51.639763 
	C89.747520,49.173794 90.865501,46.909073 91.899765,43.852009 
z"/>
<path fill="#2B292A" opacity="1.000000" stroke="none" 
	d="
M152.236740,30.003387 
	C155.084259,30.250252 158.029755,29.932768 159.923645,31.194178 
	C161.586884,32.301960 162.945908,35.253738 162.775269,37.248753 
	C162.657959,38.620243 159.859055,40.253109 157.966309,40.865829 
	C155.197235,41.762230 152.166138,41.849174 149.241989,42.281799 
	C150.661896,48.771130 151.782898,49.277122 157.229385,46.411404 
	C158.118256,45.943718 159.464691,46.345661 161.606827,46.345661 
	C158.049454,50.693314 154.744019,51.778225 150.668228,50.354996 
	C146.634735,48.946526 145.990479,45.635620 145.890991,41.944263 
	C145.754913,36.895588 147.475891,32.846519 152.236740,30.003387 
M151.664719,34.187500 
	C150.773727,35.461632 149.882751,36.735760 148.157135,39.203442 
	C152.987717,38.619949 156.538345,38.191063 160.490967,37.713623 
	C158.523315,32.507008 156.170990,30.952934 151.664719,34.187500 
z"/>
<path fill="#292728" opacity="1.000000" stroke="none" 
	d="
M67.669357,41.868553 
	C65.994522,41.891544 64.729172,41.788040 62.595627,41.613514 
	C64.336182,44.385071 65.727417,46.600388 67.029091,48.673100 
	C70.096786,47.401367 72.749916,46.301495 75.403053,45.201622 
	C73.859795,50.200340 70.577919,51.571995 66.495392,50.715549 
	C62.225761,49.819855 60.847149,46.620182 60.659393,42.572327 
	C60.286480,34.532455 64.645012,28.832264 71.360504,30.080742 
	C73.897804,30.552450 76.876122,34.060112 77.723251,36.784122 
	C78.684448,39.874939 74.998703,40.467838 72.467163,40.995735 
	C71.015633,41.298420 69.542343,41.496750 67.669357,41.868553 
M69.427956,38.981033 
	C71.009964,37.905125 72.591972,36.829216 74.173981,35.753307 
	C72.979256,34.586998 71.753845,32.407513 70.595512,32.442604 
	C66.987854,32.551891 64.916016,34.899399 64.367264,38.770615 
	C65.993774,38.770615 67.306908,38.770615 69.427956,38.981033 
z"/>
<path fill="#393738" opacity="1.000000" stroke="none" 
	d="
M99.031708,36.539490 
	C98.769440,35.563297 98.535263,34.478683 98.840836,34.295769 
	C101.491325,32.709206 104.238762,31.284609 106.306404,30.164467 
	C108.872452,32.018436 111.518478,33.930187 114.114624,35.805901 
	C112.055847,39.738609 106.675491,32.053207 105.916466,38.586834 
	C105.327972,43.652519 105.841888,48.287994 113.332916,47.624088 
	C113.215820,48.108120 113.098724,48.592155 112.981628,49.076191 
	C110.687134,49.320992 106.927101,50.521141 106.354836,49.643261 
	C104.024132,46.067894 102.669823,41.856049 100.955666,37.878777 
	C101.363281,37.645473 101.770897,37.412167 102.178513,37.178864 
	C101.222359,37.068954 100.266197,36.959042 99.031708,36.539490 
z"/>
<path fill="#272426" opacity="1.000000" stroke="none" 
	d="
M277.508484,31.377422 
	C278.209625,32.670990 278.619537,33.662819 278.677795,33.803841 
	C275.716614,33.803841 271.933044,32.856907 271.163086,33.978592 
	C268.698425,37.569191 271.648041,39.535919 274.672852,41.440659 
	C277.625885,43.300163 277.937408,46.439713 276.130768,49.335339 
	C274.124390,52.551102 270.951294,52.728092 267.781067,51.361290 
	C265.177979,50.238995 264.169373,48.262562 265.927094,44.980736 
	C266.707703,45.851101 267.249725,46.338028 267.649384,46.922337 
	C269.025391,48.933960 270.815796,50.504253 272.738861,48.107056 
	C273.362305,47.329884 272.309082,44.873241 271.552338,43.431812 
	C270.974762,42.331715 268.991150,41.748180 268.793182,40.712986 
	C268.252075,37.883465 267.237427,34.354889 268.406097,32.171337 
	C270.199982,28.819647 273.881378,28.426548 277.508484,31.377422 
z"/>
<path fill="#2F2C2E" opacity="1.000000" stroke="none" 
	d="
M224.307465,43.979042 
	C224.307465,39.385677 224.307465,34.792313 224.307465,30.198948 
	C224.779251,30.138676 225.251038,30.078403 225.722839,30.018131 
	C226.289917,30.895643 226.857010,31.773155 227.424469,32.651237 
	C232.346069,30.107431 236.079208,30.694620 238.701355,34.551067 
	C241.151489,38.154507 239.665756,47.429859 235.221558,51.202881 
	C235.412277,49.091393 235.511948,47.844906 235.639847,46.601318 
	C235.910248,43.971958 236.780273,41.225441 236.279129,38.755260 
	C235.914490,36.957954 233.746735,35.526470 232.382889,33.931892 
	C230.615417,35.581268 228.549896,37.023693 227.202286,38.964588 
	C226.495163,39.983021 227.045883,41.874809 226.481171,43.675652 
	C225.391663,43.979076 224.849564,43.979061 224.307465,43.979042 
z"/>
<path fill="#252527" opacity="1.000000" stroke="none" 
	d="
M137.025772,30.561131 
	C135.655151,30.258614 134.260559,29.627726 132.522522,28.954285 
	C131.376572,25.117886 130.574051,21.324039 129.749298,17.425146 
	C133.295349,17.877850 136.840790,18.330477 141.103851,18.874718 
	C140.243271,21.545639 139.187531,24.822260 138.105637,28.465206 
	C137.720245,29.298609 137.361023,29.765684 137.025772,30.561131 
z"/>
<path fill="#242223" opacity="1.000000" stroke="none" 
	d="
M256.062134,49.155388 
	C252.541168,50.969650 249.054718,52.483971 245.434662,49.275017 
	C241.721313,45.983368 242.595032,41.843494 243.525970,37.933556 
	C244.847702,32.382172 249.244431,31.492727 254.568237,32.209328 
	C254.972900,32.770607 254.966400,32.949753 254.577606,33.112778 
	C253.412338,33.327507 252.633636,33.574146 251.845703,33.786583 
	C247.220657,35.033558 244.672485,40.208202 246.350021,44.959854 
	C247.583893,48.454838 250.746567,49.023804 255.906647,47.083252 
	C255.990768,48.049210 256.026459,48.602299 256.062134,49.155388 
z"/>
<path fill="#2B292A" opacity="1.000000" stroke="none" 
	d="
M256.448517,49.080036 
	C256.026459,48.602299 255.990768,48.049210 256.015411,46.725563 
	C259.298706,41.360264 258.824738,35.911934 254.959900,33.128895 
	C254.966400,32.949753 254.972900,32.770607 254.988602,32.322735 
	C256.739410,30.810343 258.481049,29.566679 260.410400,28.188961 
	C260.410400,35.926273 260.410400,43.834595 260.410400,53.158188 
	C258.482178,50.918236 257.658539,49.961460 256.448517,49.080036 
z"/>
<path fill="#2C2A2B" opacity="1.000000" stroke="none" 
	d="
M216.385162,50.213535 
	C215.364441,49.787766 213.964676,49.032867 213.974426,48.296627 
	C214.040359,43.315220 214.328094,38.331371 214.744034,33.365055 
	C214.816574,32.498898 215.835251,31.711979 216.416931,30.888456 
	C216.942123,31.760624 217.957581,32.658756 217.912979,33.500751 
	C217.623230,38.971653 217.103012,44.430347 216.385162,50.213535 
z"/>
<path fill="#3A3839" opacity="1.000000" stroke="none" 
	d="
M117.239021,39.983669 
	C117.203781,37.861935 116.899452,36.149982 117.236000,34.574978 
	C117.479164,33.436985 118.574013,32.480988 119.289024,31.443821 
	C119.845428,31.670792 120.401833,31.897762 120.958237,32.124733 
	C120.545532,38.454632 120.132820,44.784534 119.720116,51.114433 
	C118.894867,51.101963 118.069618,51.089493 117.244370,51.077023 
	C117.244370,47.535381 117.244370,43.993740 117.239021,39.983669 
z"/>
<path fill="#323031" opacity="1.000000" stroke="none" 
	d="
M52.424648,34.489967 
	C51.705059,39.499386 50.707829,44.597992 49.710594,49.696598 
	C49.108982,49.592770 48.507366,49.488941 47.905750,49.385113 
	C47.905750,46.163765 48.213406,42.903633 47.813663,39.732677 
	C47.459438,36.922741 46.318760,34.211945 45.231163,30.436419 
	C48.384186,32.325146 50.265594,33.452148 52.424648,34.489967 
z"/>
<path fill="#3A3839" opacity="1.000000" stroke="none" 
	d="
M224.266449,44.326912 
	C224.849564,43.979061 225.391663,43.979076 226.201721,44.019875 
	C226.411804,45.378319 226.353943,46.695980 226.296082,48.013645 
	C225.874023,48.044182 225.451950,48.074722 225.029892,48.105263 
	C224.761734,46.961769 224.493576,45.818272 224.266449,44.326912 
z"/>
<path fill="#252527" opacity="1.000000" stroke="none" 
	d="
M137.607208,37.220062 
	C136.712463,36.215836 136.107758,35.265194 135.503052,34.314556 
	C136.158340,33.931137 136.813629,33.547718 137.468903,33.164299 
	C137.979355,34.175083 138.489807,35.185871 138.999146,36.579071 
	C138.631104,37.065536 138.264175,37.169594 137.607208,37.220062 
z"/>
<path fill="#F3F3F3" opacity="1.000000" stroke="none" 
	d="
M88.689560,52.769966 
	C89.074516,52.551136 89.891357,52.433895 90.795891,52.661919 
	C90.296196,52.961971 89.708824,52.916759 88.689560,52.769966 
z"/>
<path fill="#313032" opacity="1.000000" stroke="none" 
	d="
M138.685974,5.347513 
	C138.651047,5.406174 138.369980,5.404088 138.035782,5.234824 
	C138.135040,5.140687 138.287445,5.213726 138.685974,5.347513 
z"/>
<path fill="#313032" opacity="1.000000" stroke="none" 
	d="
M125.603508,17.733482 
	C125.145966,17.640856 124.624252,17.250454 124.202011,16.701820 
	C124.714096,16.840963 125.126717,17.138336 125.603508,17.733482 
z"/>
<path fill="#313032" opacity="1.000000" stroke="none" 
	d="
M125.765015,20.697365 
	C125.602165,20.445353 125.455566,19.859003 125.527115,19.148991 
	C125.757256,19.471230 125.769264,19.917128 125.765015,20.697365 
z"/>
<path fill="#313032" opacity="1.000000" stroke="none" 
	d="
M125.253822,14.662757 
	C125.384888,14.202531 125.740196,13.631676 126.372185,13.015817 
	C126.258598,13.497917 125.868332,14.025023 125.253822,14.662757 
z"/>
<path fill="#F6F5EE" opacity="1.000000" stroke="none" 
	d="
M145.079102,14.382814 
	C145.410370,14.793809 145.685501,15.522640 145.893829,16.573591 
	C145.559036,16.164024 145.291000,15.432337 145.079102,14.382814 
z"/>
<path fill="#313032" opacity="1.000000" stroke="none" 
	d="
M128.290512,10.938046 
	C128.220901,10.684117 128.389786,10.351133 128.795807,10.019360 
	C128.864960,10.300043 128.696976,10.579516 128.290512,10.938046 
z"/>
<path fill="#313032" opacity="1.000000" stroke="none" 
	d="
M129.260208,9.969597 
	C129.219894,9.775687 129.424820,9.515703 129.871185,9.185184 
	C129.910233,9.377607 129.707840,9.640565 129.260208,9.969597 
z"/>
<path fill="#F3F3F3" opacity="1.000000" stroke="none" 
	d="
M91.941628,44.248184 
	C90.865501,46.909073 89.747520,49.173794 88.530190,51.639763 
	C83.290810,47.003365 82.308060,44.066017 85.116631,42.085354 
	C87.805298,40.189262 90.373573,40.444485 91.941628,44.248184 
z"/>
<path fill="#E9E9E9" opacity="1.000000" stroke="none" 
	d="
M151.940399,33.945000 
	C156.170990,30.952934 158.523315,32.507008 160.490967,37.713623 
	C156.538345,38.191063 152.987717,38.619949 148.157135,39.203442 
	C149.882751,36.735760 150.773727,35.461632 151.940399,33.945000 
z"/>
<path fill="#EAEAEA" opacity="1.000000" stroke="none" 
	d="
M69.023994,38.875824 
	C67.306908,38.770615 65.993774,38.770615 64.367264,38.770615 
	C64.916016,34.899399 66.987854,32.551891 70.595512,32.442604 
	C71.753845,32.407513 72.979256,34.586998 74.173981,35.753307 
	C72.591972,36.829216 71.009964,37.905125 69.023994,38.875824 
z"/>
<path fill="#F8F8F8" opacity="1.000000" stroke="none" 
	d="
M254.577606,33.112778 
	C258.824738,35.911934 259.298706,41.360264 255.966980,46.312698 
	C250.746567,49.023804 247.583893,48.454838 246.350021,44.959854 
	C244.672485,40.208202 247.220657,35.033558 251.845703,33.786583 
	C252.633636,33.574146 253.412338,33.327507 254.577606,33.112778 
z"/>
</svg>